<svg width="25" height="25" viewBox="0 0 25 25" fill="none" xmlns="http://www.w3.org/2000/svg">
<path d="M21.33 8.51002L14.78 3.27002C13.5 2.25002 11.5 2.24002 10.23 3.26002L3.67996 8.51002C2.73996 9.26002 2.16996 10.76 2.36996 11.94L3.62996 19.48C3.91996 21.17 5.48996 22.5 7.19996 22.5H17.8C19.49 22.5 21.09 21.14 21.38 19.47L22.64 11.93C22.82 10.76 22.25 9.26002 21.33 8.51002ZM13.25 18.5C13.25 18.91 12.91 19.25 12.5 19.25C12.09 19.25 11.75 18.91 11.75 18.5V15.5C11.75 15.09 12.09 14.75 12.5 14.75C12.91 14.75 13.25 15.09 13.25 15.5V18.5Z" fill="#42A6ED"/>
</svg>
