<svg width="25" height="25" viewBox="0 0 25 25" fill="none" xmlns="http://www.w3.org/2000/svg">
<path d="M9.5 22.5H15.5C20.5 22.5 22.5 20.5 22.5 15.5V9.5C22.5 4.5 20.5 2.5 15.5 2.5H9.5C4.5 2.5 2.5 4.5 2.5 9.5V15.5C2.5 20.5 4.5 22.5 9.5 22.5Z" stroke="#7A7777" stroke-width="1.5" stroke-linecap="round" stroke-linejoin="round"/>
<path d="M16 19C17.1 19 18 18.1 18 17V8C18 6.9 17.1 6 16 6C14.9 6 14 6.9 14 8V17C14 18.1 14.89 19 16 19Z" stroke="#7A7777" stroke-width="1.5" stroke-linecap="round" stroke-linejoin="round"/>
<path d="M9 19C10.1 19 11 18.1 11 17V13.5C11 12.4 10.1 11.5 9 11.5C7.9 11.5 7 12.4 7 13.5V17C7 18.1 7.89 19 9 19Z" stroke="#7A7777" stroke-width="1.5" stroke-linecap="round" stroke-linejoin="round"/>
</svg>
