<svg width="25" height="25" viewBox="0 0 25 25" fill="none" xmlns="http://www.w3.org/2000/svg">
<path d="M2.5 17.56H12.5" stroke="#7A7777" stroke-width="1.5" stroke-miterlimit="10" stroke-linecap="round" stroke-linejoin="round"/>
<path d="M4.71997 14H10.28C12.06 14 12.5 14.44 12.5 16.2V20.31C12.5 22.07 12.06 22.51 10.28 22.51H4.71997C2.93997 22.51 2.5 22.07 2.5 20.31V16.2C2.5 14.44 2.93997 14 4.71997 14Z" stroke="#7A7777" stroke-width="1.5" stroke-linecap="round" stroke-linejoin="round"/>
<path d="M22.5 15.5C22.5 19.37 19.37 22.5 15.5 22.5L16.55 20.75" stroke="#7A7777" stroke-width="1.5" stroke-linecap="round" stroke-linejoin="round"/>
<path d="M2.5 9.5C2.5 5.63 5.63 2.5 9.5 2.5L8.45001 4.25" stroke="#7A7777" stroke-width="1.5" stroke-linecap="round" stroke-linejoin="round"/>
<path d="M19 11.5C21.4853 11.5 23.5 9.48528 23.5 7C23.5 4.51472 21.4853 2.5 19 2.5C16.5147 2.5 14.5 4.51472 14.5 7C14.5 9.48528 16.5147 11.5 19 11.5Z" stroke="#7A7777" stroke-width="1.5" stroke-linecap="round" stroke-linejoin="round"/>
</svg>
