<svg width="412" height="358" viewBox="0 0 412 358" fill="none" xmlns="http://www.w3.org/2000/svg">
<g clip-path="url(#clip0_1_42869)">
<path d="M408.462 152.727C408.318 152.651 408.288 152.98 408.382 153.05C410.087 154.353 412.246 155.609 410.963 158.221C410.448 159.271 409.442 160.027 408.332 160.437C408.201 158.604 407.446 156.982 405.701 156.762C404.066 156.552 402.662 157.445 402.933 159.221C403.23 161.163 404.899 162.563 406.858 162.539C407.088 162.539 407.316 162.506 407.539 162.463C407.332 163.389 406.944 164.245 406.45 164.828C405.978 165.385 405.149 165.655 404.25 165.688C404.029 164.938 403.779 164.199 403.498 163.462C395.863 143.621 368.264 135.725 341.858 145.817C315.453 155.912 300.236 180.181 307.875 200.019C310.205 206.072 314.397 211.013 319.845 214.675C307.908 217.26 308.617 224.744 308.617 224.744L312.568 221.472L311.612 226.599L322.593 216.354C327.003 218.796 332.074 220.492 337.546 221.365C327.588 227.219 330.335 233.909 330.335 233.909L333.163 229.631L333.742 234.816L341.267 221.825C350.162 222.618 359.917 221.329 369.514 217.66C381.592 213.039 391.326 205.459 397.604 196.69C399.156 199.722 401.509 202.064 404.996 200.875C413.015 198.129 407.623 187.031 407.623 187.031L406.791 190.916L405.357 187.628C403.581 194.704 401.479 195.011 399.767 193.405C404.879 184.879 406.781 175.49 404.544 166.741C405.537 166.674 406.476 166.291 407.112 165.501C407.673 164.802 408.108 163.572 408.278 162.246C410.083 161.546 411.541 159.657 411.922 157.898C412.437 155.526 410.311 153.717 408.462 152.724V152.727ZM406.821 160.773C405.691 160.86 404.631 160.19 404.023 159.287C402.853 157.552 406.045 157.395 406.914 158.395C407.412 158.971 407.653 159.771 407.707 160.627C407.409 160.7 407.112 160.75 406.821 160.773Z" fill="#42A6ED"/>
<path d="M323.109 164.594C323.798 162.145 325.529 160.386 328.2 160.442C330.928 160.502 330.637 163.981 330.581 165.813C330.577 165.97 330.734 166.066 330.811 165.9C331.741 163.894 331.125 160.599 328.933 159.696C325.981 158.48 322.905 161.812 323.026 164.56C323.026 164.607 323.086 164.66 323.106 164.59L323.109 164.594Z" fill="#001B42"/>
<path d="M332.867 167.127C333.555 164.678 335.287 162.919 337.958 162.976C340.686 163.036 340.398 166.514 340.338 168.35C340.335 168.503 340.492 168.603 340.569 168.437C341.498 166.431 340.883 163.139 338.69 162.233C335.742 161.013 332.663 164.349 332.783 167.097C332.783 167.144 332.847 167.197 332.867 167.127Z" fill="#001B42"/>
<path d="M350.817 203.674C349.964 206.636 348.62 208.222 347.24 209.028L339.882 194.549C345.665 190.734 343.629 181.738 343.629 181.738C343.629 181.738 353.237 195.258 350.817 203.671V203.674Z" fill="white"/>
<path d="M344.312 210.168C342.952 210.168 341.952 209.754 341.888 209.728L342.166 209.068C342.186 209.078 344.439 209.998 346.662 208.932C348.404 208.099 349.684 206.296 350.47 203.571C352.378 196.947 346.545 186.905 344.235 183.293C344.479 185.582 344.519 189.78 342.179 192.879C340.494 195.115 337.87 196.347 334.39 196.557L334.347 195.844C337.606 195.651 340.047 194.512 341.601 192.453C344.703 188.348 343.296 181.881 343.279 181.817L342.885 180.075L343.921 181.534C344.315 182.091 353.602 195.291 351.158 203.771C350.313 206.706 348.902 208.662 346.963 209.585C346.03 210.028 345.108 210.171 344.309 210.171L344.312 210.168Z" fill="#001B42"/>
<path d="M341.295 193.436L340.983 193.617L348.997 207.341L349.309 207.16L341.295 193.436Z" fill="#001B42"/>
<path d="M350.292 204.87L342.928 190.6L343.249 190.436L350.61 204.706L350.292 204.87Z" fill="#001B42"/>
<path d="M351.057 199.735L343.603 188.197L343.907 188.004L351.358 199.542L351.057 199.735Z" fill="#001B42"/>
<path d="M343.493 201.427L343.182 201.248L348.999 191.322L349.309 191.502L343.493 201.427Z" fill="#001B42"/>
<path d="M346.025 190.784C342.946 199.054 330.46 202.069 318.138 197.511C305.816 192.957 298.322 182.558 301.4 174.289C304.479 166.019 316.965 163.004 329.287 167.562C341.609 172.116 349.104 182.515 346.028 190.784H346.025Z" fill="#FF9166"/>
<path d="M316.162 178.167C316.162 182.519 314.835 186.044 313.197 186.044C311.559 186.044 310.232 182.519 310.232 178.167C310.232 173.816 311.559 170.291 313.197 170.291C314.835 170.291 316.162 173.816 316.162 178.167Z" fill="#001B42"/>
<path d="M331.962 181.789C331.962 187.646 329.993 192.394 327.563 192.394C325.132 192.394 323.163 187.646 323.163 181.789C323.163 175.932 325.132 171.184 327.563 171.184C329.993 171.184 331.962 175.935 331.962 181.789Z" fill="#001B42"/>
<path d="M346.075 163.591C346.519 165.047 347.184 166.433 347.983 167.723C348.759 168.979 350.658 171.431 352.439 170.785C355.094 169.825 356.21 165.567 356.825 163.122C356.896 162.838 356.625 162.105 356.484 162.668C355.896 165.027 354.95 168.369 352.777 169.732C349.892 171.538 347.021 165.094 346.419 163.135C346.245 162.578 345.991 163.305 346.078 163.588L346.075 163.591Z" fill="#001B42"/>
<path d="M329.537 156.061C329.537 156.061 321.277 160.962 318.582 159.989C315.891 159.013 320.829 150.39 320.829 150.39L329.537 156.061Z" fill="#42A6ED"/>
<path d="M329.483 155.627C326.561 157.353 322.971 159.495 319.514 159.665C315.897 159.845 320.083 152.255 320.965 150.703C321.089 150.483 320.929 149.647 320.684 150.07C319.759 151.696 318.953 153.402 318.304 155.154C317.793 156.547 317.047 158.682 318.014 160.052C319.08 161.558 322.67 159.852 323.867 159.365C325.836 158.566 327.755 157.57 329.587 156.49C329.827 156.347 329.727 155.481 329.483 155.624V155.627Z" fill="#001B42"/>
<path d="M339.894 157.491L344.263 160.653C344.263 160.653 355.756 147.349 382.516 153.433L381.078 151.167C381.078 151.167 360.667 142.995 339.894 157.491Z" fill="#001B42"/>
<path d="M392.765 178.232C394.741 187.427 388.951 196.557 379.801 198.775C371.15 200.871 362.465 195.57 359.313 187.537C355.866 178.741 360.71 168.843 369.298 165.394C377.679 162.033 387.216 166.324 391.267 174.084C391.953 175.393 392.417 176.799 392.762 178.232C393.039 179.361 393.581 177.895 393.447 177.329C391.575 169.636 385.467 163.652 377.498 162.596C369.458 161.529 361.984 166.554 358.908 173.797C355.88 180.927 357.534 189.56 362.756 195.214C368.195 201.101 376.977 202.58 384.097 198.995C391.993 195.014 395.219 185.605 393.444 177.329C393.2 176.196 392.641 177.669 392.758 178.232H392.765Z" fill="#FFD629"/>
<path d="M384.548 181.124C380.814 179.455 376.495 179.748 372.54 178.998C371.394 178.785 370.271 178.285 369.278 177.689C369.161 177.619 369.057 177.526 368.96 177.429C370.174 175.94 373.383 175.47 375.258 175.287C376.906 175.124 378.564 175.104 380.209 175.333C380.333 175.35 380.453 175.373 380.577 175.397L379.948 167.71C376.415 167.227 372.223 168.097 369.662 169.23C366.553 170.609 364.641 173.574 364.27 176.879C363.889 180.281 365.734 183.086 368.793 184.436C371.785 185.759 375.245 185.645 378.437 185.915C380.069 186.052 381.703 186.285 383.224 186.885C382.79 187.441 382.255 187.884 381.683 188.314C379.303 190.097 375.98 190.276 373.129 190.017C372.196 189.933 371.166 189.723 370.294 189.284L369.883 195.284C372.112 196.27 374.82 196.377 377.164 196.097C380.623 195.681 383.679 194.208 385.832 191.429C388.312 188.221 388.76 183.003 384.548 181.124Z" fill="#FFD629"/>
<path d="M378.374 198.212L371.34 165.63L374.934 165.364L380.48 197.599L378.374 198.212Z" fill="#FFD629"/>
<path d="M363.899 147.846C363.899 148.226 363.879 148.599 363.836 148.969C363.716 150.128 363.405 151.231 362.933 152.247C356.328 153.13 351.594 155.312 348.545 157.235C347.168 156.538 345.965 155.546 345.022 154.346C343.605 152.557 342.766 150.301 342.766 147.849C342.766 142.032 347.499 137.317 353.333 137.317C359.166 137.317 363.899 142.032 363.899 147.849V147.846Z" fill="#FFD629"/>
<path d="M349.758 156.726C349.575 156.572 345.225 152.868 344.868 147.45C344.65 144.222 345.907 141.096 348.598 138.154L349.394 138.877C346.907 141.593 345.747 144.451 345.941 147.377C346.268 152.344 350.41 155.866 350.454 155.903L349.758 156.722V156.726Z" fill="#FFA515"/>
<path d="M351.016 155.935C350.943 155.835 343.732 145.893 350.073 140.323C352.524 138.17 355.522 137.824 358.09 139.39C361.182 141.279 363.769 146.183 362.148 152.494L361.105 152.227C362.593 146.446 360.293 141.995 357.528 140.306C355.352 138.98 352.898 139.28 350.789 141.129C345.186 146.05 351.822 155.209 351.889 155.299L351.02 155.935H351.016Z" fill="#FFA515"/>
<path d="M358.1 148.007C356.986 147.04 355.462 146.687 354.178 146.014C353.804 145.821 353.47 145.531 353.189 145.218C353.156 145.181 353.129 145.138 353.105 145.095C353.684 144.708 354.84 144.881 355.509 145.015C356.094 145.131 356.672 145.298 357.214 145.548C357.254 145.568 357.294 145.588 357.334 145.608L357.926 142.886C356.759 142.346 355.215 142.209 354.212 142.333C352.992 142.483 352.019 143.309 351.541 144.412C351.05 145.548 351.394 146.707 352.306 147.497C353.202 148.266 354.409 148.593 355.482 149.019C356.03 149.236 356.572 149.489 357.033 149.856C356.826 150.002 356.592 150.099 356.351 150.189C355.342 150.555 354.172 150.269 353.216 149.882C352.905 149.756 352.571 149.576 352.313 149.333L351.538 151.365C352.203 151.938 353.129 152.258 353.968 152.408C355.208 152.628 356.418 152.438 357.455 151.705C358.651 150.859 359.357 149.099 358.096 148.007H358.1Z" fill="#FFA515"/>
<path d="M354.162 153.267L355.171 141.269L356.441 141.555L354.954 153.277L354.162 153.267Z" fill="#FFA515"/>
<path d="M348.997 125.667C348.997 131.485 344.267 136.199 338.43 136.199C332.593 136.199 327.863 131.485 327.863 125.667C327.863 119.85 332.593 115.139 338.43 115.139C344.267 115.139 348.997 119.853 348.997 125.667Z" fill="#FFD629"/>
<path d="M339.059 136.155C333.65 135.369 329.568 130.661 329.568 125.204C329.568 121.522 331.4 118.09 334.466 116.025L335.067 116.914C332.299 118.78 330.648 121.875 330.648 125.204C330.648 130.131 334.332 134.383 339.216 135.093L339.062 136.155H339.059Z" fill="#FFA515"/>
<path d="M339.564 134.576C335.325 134.576 331.875 130.581 331.875 125.674C331.875 120.766 335.325 116.771 339.564 116.771C343.802 116.771 347.252 120.763 347.252 125.674C347.252 130.585 343.802 134.576 339.564 134.576ZM339.564 117.844C335.917 117.844 332.951 121.359 332.951 125.674C332.951 129.988 335.917 133.507 339.564 133.507C343.211 133.507 346.176 129.992 346.176 125.674C346.176 121.356 343.211 117.844 339.564 117.844Z" fill="#FFA515"/>
<path d="M342.977 125.605C341.52 124.892 339.805 124.945 338.25 124.595C337.799 124.492 337.361 124.279 336.977 124.029C336.933 124.002 336.893 123.962 336.853 123.922C337.354 123.349 338.635 123.209 339.38 123.162C340.035 123.119 340.691 123.136 341.339 123.249C341.389 123.256 341.436 123.266 341.483 123.279L341.342 120.224C339.948 119.981 338.277 120.27 337.247 120.68C335.997 121.183 335.198 122.329 335.001 123.636C334.804 124.978 335.492 126.114 336.686 126.694C337.856 127.26 339.226 127.264 340.487 127.414C341.132 127.49 341.774 127.607 342.369 127.867C342.188 128.08 341.971 128.247 341.74 128.41C340.771 129.083 339.45 129.11 338.327 128.966C337.959 128.92 337.555 128.823 337.217 128.637L336.97 131.009C337.839 131.432 338.909 131.509 339.842 131.432C341.219 131.315 342.449 130.776 343.342 129.703C344.371 128.467 344.622 126.408 342.98 125.601L342.977 125.605Z" fill="#FFA515"/>
<path d="M340.286 132.288L337.963 119.28L339.39 119.224L341.132 132.078L340.286 132.288Z" fill="#FFA515"/>
<path d="M369.496 140.228C372.047 145.459 378.368 147.641 383.616 145.099C388.865 142.557 391.051 136.256 388.504 131.025C385.953 125.794 379.632 123.612 374.38 126.154C369.135 128.696 366.945 134.997 369.496 140.228Z" fill="#FFD629"/>
<path d="M383.031 145.332L382.426 144.443C386.508 141.677 387.955 136.25 385.796 131.815C384.338 128.827 381.494 126.758 378.184 126.288L378.334 125.222C381.998 125.745 385.147 128.031 386.762 131.342C389.155 136.253 387.551 142.264 383.028 145.326L383.031 145.332Z" fill="#FFA515"/>
<path d="M378.917 144.806C375.728 144.806 372.645 142.71 371.068 139.471C370.031 137.346 369.764 135 370.319 132.868C370.88 130.705 372.214 129.013 374.08 128.113C375.006 127.667 376.005 127.437 377.051 127.437C380.241 127.437 383.323 129.533 384.904 132.771C387.057 137.186 385.703 142.283 381.889 144.129C380.963 144.579 379.963 144.806 378.917 144.806ZM377.048 128.51C376.166 128.51 375.323 128.7 374.548 129.076C372.976 129.839 371.843 131.282 371.358 133.138C370.87 135.023 371.108 137.109 372.034 139.002C373.434 141.874 376.135 143.729 378.917 143.729C379.799 143.729 380.638 143.54 381.417 143.163C384.697 141.577 385.823 137.122 383.931 133.241C382.53 130.366 379.829 128.51 377.051 128.51H377.048Z" fill="#FFA515"/>
<path d="M381.321 137.007C380.098 135.944 378.426 135.558 377.012 134.821C376.604 134.605 376.233 134.288 375.926 133.945C375.889 133.905 375.859 133.858 375.835 133.812C376.471 133.385 377.741 133.575 378.473 133.725C379.118 133.852 379.75 134.035 380.345 134.311C380.392 134.331 380.432 134.355 380.475 134.381L381.127 131.393C379.844 130.8 378.152 130.65 377.049 130.786C375.708 130.95 374.642 131.856 374.117 133.065C373.579 134.311 373.957 135.588 374.96 136.454C375.942 137.3 377.266 137.657 378.446 138.123C379.048 138.363 379.64 138.639 380.148 139.043C379.92 139.206 379.666 139.309 379.399 139.409C378.292 139.812 377.009 139.496 375.959 139.069C375.618 138.933 375.25 138.733 374.97 138.466L374.121 140.695C374.853 141.328 375.866 141.678 376.788 141.841C378.149 142.081 379.479 141.875 380.616 141.068C381.93 140.139 382.702 138.206 381.321 137.014V137.007Z" fill="#FFA515"/>
<path d="M376.999 142.776L378.105 129.609L379.499 129.922L377.868 142.786L376.999 142.776Z" fill="#FFA515"/>
<path d="M83.4907 101.872C12.5278 101.872 -45 159.209 -45 229.936C-45 300.663 12.5278 358 83.4907 358C154.454 358 211.981 300.663 211.981 229.936C211.981 159.209 154.454 101.872 83.4907 101.872ZM83.4907 314.896C36.4128 314.896 -1.75301 276.857 -1.75301 229.936C-1.75301 183.014 36.4128 144.975 83.4907 144.975C130.569 144.975 168.734 183.014 168.734 229.936C168.734 276.857 130.569 314.896 83.4907 314.896Z" fill="url(#paint0_linear_1_42869)" fill-opacity="0.6"/>
<path d="M266.485 146.99L275.072 137.235C275.072 137.235 268.668 131.527 271.442 126.6C274.217 121.672 291.346 131.251 290.129 140.983C288.909 150.708 280.638 139.947 280.638 139.947L269.754 150.415L266.485 146.99Z" fill="#FFD8BD"/>
<path d="M278.242 130.341C278.242 130.341 287.328 103.68 289.812 104.713C292.299 105.739 283.451 125.823 283.451 125.823C283.451 125.823 297.825 104.133 299.657 106.652C301.492 109.171 280.633 134.572 280.633 134.572L278.242 130.341Z" fill="#FFD8BD"/>
<path d="M285.66 139.34C281.134 138.444 277.229 130.574 277.059 130.235L275.715 127.486L277.794 129.735C281.525 133.763 283.504 134.226 284.507 133.903C285.737 133.51 285.971 131.771 285.971 131.754L286.864 131.864C286.854 131.96 286.553 134.189 284.784 134.759C283.42 135.196 281.645 134.476 279.476 132.62C281.024 135.026 283.527 138.164 286.061 138.494C287.278 138.661 288.378 138.161 289.424 136.968L290.1 137.561C288.859 138.974 287.459 139.587 285.941 139.384C285.851 139.37 285.754 139.357 285.66 139.337V139.34Z" fill="#001B42"/>
<path d="M288.046 145.277C287.725 145.124 280.267 141.445 281.444 136.351L282.323 136.551C281.297 140.959 288.371 144.434 288.444 144.467L288.05 145.277H288.046Z" fill="#001B42"/>
<path d="M264.358 145.048L271.399 137.641L281.12 148.363L271.385 153.504L264.358 145.048Z" fill="#0090BC"/>
<path d="M240.036 131.913C240.036 131.913 248.704 155.999 268.099 139.79L277.169 151.961C277.169 151.961 246.839 176.209 238.221 141.036L240.039 131.913H240.036Z" fill="#001B42"/>
<path d="M173.747 153.7C173.747 153.7 158.259 168.35 146.475 164.408C134.688 160.467 145.991 139.793 145.991 139.793L129.099 140.746C129.099 140.746 116.924 176.639 136.48 180.331C156.039 184.022 180.974 157.095 180.974 157.095L173.75 153.7H173.747Z" fill="#001B42"/>
<path d="M135.735 143.493L140.385 132.778C140.385 132.778 100.44 125.058 100.704 118.308C100.972 111.561 132.596 123.186 142.31 129.403L142.825 126.818L148.184 129.67L140.05 144.346L135.731 143.493H135.735Z" fill="#001B42"/>
<path d="M203.108 155.924L253.626 212.454L261.204 198.744L208.012 152.062L203.108 155.924Z" fill="#001B42"/>
<path d="M251.714 203.126L263.661 215.713L268.756 210.439L266.68 209.133C266.68 209.133 291.073 189.435 293.958 176.761C296.843 164.087 268.047 195.976 264.297 206.691L255.475 201.37L251.717 203.129L251.714 203.126Z" fill="#001B42"/>
<path d="M243.853 141.611C233.787 156.98 207.973 147.761 207.973 147.761L213.783 130.296L202.993 121.823L204.868 114.72C200.205 112.607 193.796 109.865 189.735 108.16C192.269 101.283 195.899 94.9391 201.017 92.5102C203.451 91.3541 206.777 91.7539 210.517 93.2832C227.162 100.053 252.07 129.066 243.853 141.611Z" fill="#001B42"/>
<path d="M264.369 23.2521C257.837 19.0941 241.029 6.10346 236.964 34.6502C236.964 34.6502 222.121 29.0961 222.803 47.9806L223.693 71.2232L255.47 68.0813L280.441 29.1861C283.213 26.3607 285.6 22.9523 287.338 18.8409C287.338 18.8409 270.908 27.4069 264.369 23.2521Z" fill="#8E532B"/>
<g opacity="0.2">
<path d="M244.445 42.5127C244.445 42.5127 244.906 43.9687 245.204 46.1944C245.484 48.3933 245.658 51.4886 244.585 54.3506C244.318 55.0569 243.98 55.7432 243.542 56.3463C243.134 56.9693 242.599 57.4858 242.071 57.9489C241.51 58.3787 240.931 58.7452 240.346 59.0117C239.765 59.2849 239.183 59.4548 238.648 59.6114C238.103 59.7147 237.609 59.8547 237.161 59.8813C236.716 59.9213 236.325 59.9879 236.004 59.9779C235.362 59.9979 234.994 60.0046 234.994 60.0046C234.994 60.0046 235.362 59.9779 236.004 59.9213C236.321 59.9113 236.706 59.8247 237.147 59.758C237.592 59.7047 238.07 59.5448 238.598 59.4115C239.113 59.2316 239.668 59.0317 240.213 58.7385C240.761 58.4453 241.296 58.0688 241.804 57.6324C242.78 56.7228 243.556 55.4867 243.967 54.1307C244.819 51.4019 244.498 48.4566 244.107 46.3643C243.91 45.3048 243.676 44.4418 243.495 43.8454C243.315 43.2424 243.198 42.9259 243.198 42.9259L244.451 42.5094L244.445 42.5127Z" fill="white"/>
<path d="M242.098 44.9908C242.098 44.9908 242.132 45.3373 242.148 45.9037C242.158 46.4768 242.158 47.2931 242.078 48.2726C241.918 50.1951 241.466 52.8838 239.932 55.0861C239.531 55.6125 239.106 56.1256 238.585 56.5288C238.083 56.9453 237.522 57.2718 236.954 57.5083C235.81 57.9848 234.657 58.1014 233.694 58.0981C232.728 58.0647 231.933 57.9481 231.384 57.8315C230.836 57.7116 230.525 57.6449 230.525 57.6449C230.525 57.6449 230.843 57.6949 231.394 57.7782C231.946 57.8548 232.741 57.9215 233.691 57.8915C234.634 57.8315 235.737 57.6449 236.78 57.1318C237.298 56.8753 237.796 56.5388 238.231 56.1256C238.685 55.7258 239.046 55.2294 239.384 54.7196C240.661 52.6073 240.932 50.0551 240.965 48.216C240.978 47.2864 240.932 46.5134 240.881 45.9737C240.831 45.4306 240.781 45.1474 240.781 45.1474L242.092 44.9875L242.098 44.9908Z" fill="white"/>
</g>
<path d="M280.438 29.1889C267.544 42.4094 246.551 42.9958 246.551 42.9958C251.983 65.9051 234.43 61.897 234.43 61.897L233.935 68.7771L228.376 65.8885C230.656 61.1873 228.299 48.3633 222.803 47.9835C221.814 47.9169 220.721 48.2434 219.537 49.1063C211.772 54.7303 211.116 77.8696 219.032 82.2975C226.952 86.7288 233.223 78.6659 233.223 78.6659L230.325 104.94L243.395 115.042C243.395 115.042 283.737 109.958 291.46 100.029C298.256 91.2967 283.975 41.1267 280.438 29.1956V29.1889Z" fill="#FFD8BD"/>
<path d="M271.967 87.5078C270.811 87.2812 269.524 86.8814 268.1 86.2517C261.317 83.2798 259.93 78.8552 260.18 76.7062C260.324 75.4701 261.013 74.5871 261.975 74.4072C262.631 74.2873 264.342 74.3706 266.114 77.7323L264.867 78.3854C263.697 76.1664 262.661 75.71 262.236 75.7966C261.902 75.8565 261.651 76.2664 261.584 76.8694C261.39 78.512 262.631 82.3169 268.671 84.969C272.92 86.8314 276.387 86.8048 278.707 84.8923C281.398 82.6767 281.822 78.7385 281.451 77.1226C281.368 76.7461 281.157 76.4729 280.793 76.273C279.028 75.2935 274.689 76.4463 273.164 76.9727L272.258 77.2859L272.231 76.3297C272.195 75.0169 272.285 73.5143 272.499 71.8684L273.896 72.0483C273.742 73.2411 273.656 74.3473 273.636 75.3534C275.464 74.8137 279.382 73.8908 281.475 75.0469C282.183 75.4367 282.651 76.0498 282.828 76.8128C283.333 79.0217 282.658 83.463 279.603 85.9785C278.135 87.1879 275.715 88.2508 271.974 87.5111L271.967 87.5078Z" fill="#001B42"/>
<path d="M258.611 85.0669L245.995 96.5782C245.995 96.5782 238.303 96.888 239.784 91.4539C239.784 91.4539 245.748 82.0316 255.997 79.4928L258.611 85.0669Z" fill="white"/>
<path d="M253.511 89.02C245.942 81.0803 253.631 72.6709 253.631 72.6709C254.26 76.6924 258.849 78.6148 261.323 79.3744H261.33C262.192 81.4302 264.315 83.829 268.383 85.6149C271.088 86.7977 273.317 87.1841 275.136 87.0275C274.237 94.5407 260.25 96.08 253.511 89.02Z" fill="#001B42"/>
<path d="M254.23 80.0382C254.23 80.0382 241.226 87.6246 240.24 92.5757C239.254 97.52 253.655 95.9008 253.655 95.9008L249.266 104.74C249.266 104.74 265.873 100.825 258.525 112.53C258.525 112.53 263.984 102.511 248.273 105.22L251.438 96.9736C251.438 96.9736 238.725 98.3563 238.856 92.5257C238.986 86.6884 254.357 79.1686 254.357 79.1686L254.23 80.0382Z" fill="#001B42"/>
<path d="M239.865 92.2271L239.49 91.634L252.732 83.3312L253.106 83.9276L239.865 92.2271Z" fill="#001B42"/>
<path d="M254.47 85.2029L241.822 94.9354L242.251 95.4892L254.899 85.7567L254.47 85.2029Z" fill="#001B42"/>
<path d="M251.98 91.6428L245.495 84.836L246.003 84.3529L252.491 91.1631L251.98 91.6428Z" fill="#001B42"/>
<path d="M215.913 66.1797C215.913 66.1797 217.431 58.3034 221.399 59.7993C225.367 61.302 227.049 68.0722 226.45 74.7957C225.858 81.5326 219.945 83.2351 221.195 71.7971L219.29 71.947L222.034 69.8713C222.034 69.8713 220.583 76.5282 222.736 78.5673C224.892 80.5963 227.73 73.2964 224.876 64.6637C222.024 56.0378 215.913 66.1797 215.913 66.1797Z" fill="#001B42"/>
<path d="M263.52 65.6538C262.66 69.9685 259.257 72.9304 255.921 72.2674C252.582 71.6077 250.576 67.5763 251.435 63.2616C252.294 58.9436 255.697 55.9817 259.033 56.6414C262.37 57.3044 264.379 61.3358 263.52 65.6538Z" fill="white"/>
<path d="M257.893 65.6829C257.509 67.612 255.961 68.9248 254.433 68.6249C252.909 68.3217 251.983 66.5226 252.364 64.5901C252.749 62.6643 254.293 61.3516 255.821 61.6515C257.348 61.9547 258.271 63.7605 257.89 65.6829H257.893Z" fill="#001B42"/>
<path d="M275.068 66.4592C274.353 70.0642 271.518 72.5331 268.727 71.98C265.942 71.4303 264.264 68.0652 264.983 64.4635C265.698 60.8618 268.54 58.3897 271.324 58.9394C274.112 59.4925 275.787 62.8576 275.068 66.4592Z" fill="white"/>
<path d="M271.106 66.5097C270.722 68.4355 269.174 69.7548 267.65 69.4517C266.122 69.1485 265.192 67.3393 265.58 65.4169C265.961 63.4878 267.509 62.1717 269.04 62.4749C270.564 62.7781 271.49 64.5839 271.106 66.5097Z" fill="#001B42"/>
<path d="M251.067 56.7903L249.72 53.0754L262.018 48.6475L263.365 52.3591L251.067 56.7903Z" fill="#001B42"/>
<path d="M268.052 45.5779L266.277 49.1039L277.449 54.6897L279.224 51.1636L268.052 45.5779Z" fill="#001B42"/>
<path d="M220.697 135.247L228.937 101.08L247.436 115.48C247.436 115.48 235.997 131.472 220.697 135.247Z" fill="#0090BC"/>
<path d="M240.517 117.778L233.781 119.144L228.202 132.354C225.839 133.58 223.321 134.593 220.694 135.243L223.054 125.444L231.234 117.904L230.642 112.33L239.053 110.688L240.514 117.778H240.517Z" fill="#FFCE00"/>
<path d="M227.263 109.516L228.042 113.214L238.672 111.355L239.775 119.897L243.69 118.828L241.163 118.558L239.19 110.169L228.49 112.088L227.263 109.516Z" fill="#001B42"/>
<path d="M223.091 141.267C219.645 158.576 201.339 169.538 182.211 165.756C163.079 161.968 150.366 144.869 153.813 127.56C157.26 110.252 175.562 99.2902 194.693 103.075C213.821 106.857 226.538 123.959 223.091 141.264V141.267Z" fill="#FFCE00"/>
<g opacity="0.2">
<path d="M169.277 124.601C164.346 129.589 162.337 136.133 165.426 142.88C168.424 149.463 175.929 153.998 182.294 148.997C189.495 143.336 190.13 135.05 191.133 126.604C191.3 125.268 191.601 123.975 192.055 122.719C191.059 123.878 191.357 124.328 192.958 124.072C195.405 124.382 197.554 126.281 199.283 127.873C201.562 129.972 205.5 138.752 202.315 141.524C201.673 142.087 198.734 144.945 199.787 146.055C200.87 147.198 203.829 144.392 204.487 143.819C210.388 138.682 211.835 131.848 208.994 124.615C206.015 117.025 196.662 114.843 190.588 119.614C183.397 125.258 184.022 133.084 182.461 141.24C182.21 142.51 181.876 143.749 181.458 144.969C181.579 143.723 180.83 143.146 179.195 143.239C177.423 142.386 175.983 140.837 174.689 139.408C172.82 137.355 169.808 128.55 171.446 126.894C172.061 126.281 175.05 123.502 173.97 122.359C172.921 121.243 169.878 123.985 169.273 124.595L169.277 124.601Z" fill="white"/>
<path d="M162.628 133.439L214.346 126.638L214.74 129.614L163.025 136.404L162.628 133.439Z" fill="white"/>
<path d="M162.373 138.169L214.087 131.435L214.468 134.417L162.757 141.147L162.373 138.169Z" fill="white"/>
</g>
<path opacity="0.2" d="M182.528 164.156C164.423 160.574 152.349 144.319 155.615 127.916C158.881 111.517 176.267 101.092 194.376 104.674C212.481 108.255 224.555 124.511 221.293 140.907C218.027 157.309 200.637 167.734 182.528 164.156ZM194.239 105.363C176.511 101.858 159.499 112.037 156.303 128.056C153.114 144.079 164.942 159.965 182.666 163.47C200.39 166.975 217.405 156.796 220.597 140.777C223.786 124.758 211.966 108.872 194.235 105.367L194.239 105.363Z" fill="white"/>
<path opacity="0.2" d="M183.047 161.742L183.455 159.676C184.127 159.806 184.802 159.912 185.477 160.002L185.2 162.095C184.485 162.001 183.763 161.878 183.047 161.742ZM180.921 161.252C180.219 161.065 179.524 160.859 178.832 160.629L179.504 158.626C180.149 158.843 180.807 159.043 181.463 159.213L180.921 161.252ZM187.369 162.308L187.51 160.202C188.189 160.249 188.877 160.272 189.552 160.272V162.381C188.83 162.378 188.095 162.355 187.369 162.305V162.308ZM176.789 159.872C176.117 159.596 175.449 159.299 174.797 158.983L175.723 157.094C176.335 157.387 176.963 157.667 177.588 157.927L176.789 159.876V159.872ZM191.732 162.311L191.592 160.209C192.277 160.162 192.959 160.096 193.624 160.006L193.905 162.095C193.189 162.191 192.461 162.261 191.729 162.311H191.732ZM172.865 157.96C172.233 157.597 171.611 157.21 171.009 156.811L172.189 155.058C172.744 155.428 173.329 155.794 173.921 156.131L172.865 157.957V157.96ZM196.061 161.732L195.64 159.673C196.302 159.536 196.974 159.379 197.625 159.196L198.187 161.225C197.492 161.418 196.776 161.592 196.064 161.732H196.061ZM169.238 155.534C168.663 155.091 168.094 154.622 167.556 154.138L168.964 152.569C169.468 153.012 169.996 153.452 170.535 153.869L169.238 155.534ZM200.273 160.572L199.564 158.586C200.206 158.363 200.845 158.117 201.463 157.843L202.306 159.776C201.647 160.062 200.958 160.329 200.273 160.572ZM165.975 152.632C165.467 152.109 164.972 151.566 164.507 151.013L166.125 149.657C166.557 150.167 167.018 150.68 167.493 151.163L165.975 152.632ZM204.285 158.836L203.305 156.967C203.91 156.654 204.505 156.317 205.073 155.961L206.187 157.753C205.572 158.13 204.936 158.496 204.288 158.833L204.285 158.836ZM163.157 149.291C162.729 148.704 162.321 148.088 161.94 147.475L163.739 146.372C164.09 146.942 164.471 147.515 164.872 148.058L163.157 149.291ZM208.002 156.537L206.758 154.835C207.31 154.435 207.841 154.012 208.346 153.582L209.723 155.181C209.175 155.648 208.597 156.104 208.002 156.537ZM160.857 145.566C160.523 144.916 160.212 144.246 159.934 143.58L161.883 142.774C162.141 143.387 162.428 144.003 162.739 144.606L160.857 145.569V145.566ZM211.335 153.695L209.837 152.206C210.315 151.73 210.78 151.23 211.214 150.723L212.819 152.089C212.351 152.642 211.846 153.182 211.331 153.695H211.335ZM159.166 141.528C158.935 140.835 158.738 140.122 158.567 139.419L160.626 138.932C160.78 139.585 160.964 140.235 161.175 140.875L159.166 141.531V141.528ZM214.179 150.36L212.461 149.134C212.856 148.584 213.23 148.018 213.574 147.448L215.386 148.528C215.019 149.147 214.611 149.764 214.183 150.36H214.179ZM158.149 137.263C158.042 136.543 157.965 135.81 157.919 135.077L160.025 134.947C160.068 135.61 160.142 136.283 160.242 136.943L158.149 137.26V137.263ZM216.433 146.595L214.534 145.669C214.831 145.069 215.099 144.45 215.343 143.823L217.315 144.58C217.054 145.263 216.757 145.939 216.436 146.595H216.433ZM157.872 132.885C157.889 132.159 157.935 131.419 158.016 130.696L160.115 130.926C160.045 131.589 159.998 132.262 159.981 132.935L157.872 132.888V132.885ZM218.014 142.501L215.981 141.914C216.165 141.271 216.326 140.615 216.459 139.955L216.479 139.842L218.559 140.235L218.532 140.365C218.388 141.085 218.214 141.801 218.014 142.501ZM158.958 128.627L158.357 128.48C158.5 127.767 158.664 127.071 158.861 126.391L160.89 126.971C160.71 127.594 160.556 128.237 160.432 128.874L158.958 128.627ZM216.78 137.849C216.854 137.183 216.897 136.507 216.907 135.84L219.023 135.88C219.007 136.61 218.96 137.343 218.886 138.069L216.784 137.849H216.78ZM161.529 125.059L159.557 124.309C159.821 123.623 160.112 122.95 160.432 122.293L162.335 123.209C162.04 123.813 161.773 124.426 161.529 125.059ZM216.861 133.825C216.817 133.162 216.74 132.482 216.64 131.822L218.729 131.502C218.839 132.225 218.92 132.962 218.97 133.681L216.861 133.825ZM163.291 121.437L161.472 120.361C161.843 119.741 162.248 119.118 162.672 118.522L164.394 119.748C163.999 120.298 163.632 120.861 163.287 121.437H163.291ZM216.255 129.843C216.098 129.193 215.911 128.544 215.701 127.904L217.71 127.244C217.94 127.941 218.141 128.647 218.311 129.353L216.259 129.843H216.255ZM165.641 118.152L164.029 116.789C164.497 116.239 164.996 115.7 165.517 115.177L167.018 116.666C166.537 117.142 166.075 117.645 165.641 118.152ZM214.988 126.008C214.728 125.392 214.44 124.775 214.126 124.176L216.005 123.209C216.339 123.856 216.653 124.522 216.934 125.192L214.988 126.008ZM168.499 115.29L167.128 113.691C167.677 113.217 168.255 112.761 168.843 112.335L170.093 114.034C169.549 114.427 169.014 114.853 168.502 115.29H168.499ZM213.126 122.413C212.772 121.843 212.391 121.274 211.993 120.727L213.701 119.488C214.133 120.074 214.544 120.691 214.925 121.304L213.126 122.413ZM171.778 112.898L170.658 111.108C171.273 110.729 171.912 110.362 172.56 110.022L173.54 111.891C172.942 112.201 172.347 112.544 171.778 112.898ZM210.733 119.131C210.302 118.618 209.84 118.109 209.362 117.625L210.873 116.153C211.385 116.676 211.88 117.219 212.348 117.765L210.73 119.128L210.733 119.131ZM175.375 111.012L174.526 109.079C175.191 108.793 175.873 108.526 176.562 108.28L177.271 110.266C176.629 110.492 175.994 110.742 175.375 111.012ZM207.881 116.226C207.38 115.776 206.852 115.343 206.314 114.927L207.604 113.261C208.182 113.711 208.747 114.174 209.285 114.653L207.878 116.226H207.881ZM179.216 109.649L178.648 107.623C179.343 107.43 180.059 107.254 180.771 107.114L181.199 109.173C180.533 109.309 179.865 109.469 179.216 109.649ZM204.659 113.744C204.101 113.367 203.516 113.008 202.921 112.674L203.97 110.849C204.605 111.208 205.231 111.595 205.829 111.995L204.659 113.747V113.744ZM183.211 108.833L182.927 106.744C183.639 106.654 184.371 106.577 185.1 106.524L185.243 108.63C184.565 108.676 183.88 108.743 183.214 108.833H183.211ZM201.119 111.715C200.51 111.425 199.882 111.142 199.25 110.885L200.052 108.936C200.724 109.213 201.393 109.509 202.041 109.826L201.119 111.715ZM187.286 108.556V106.451C188.005 106.451 188.737 106.477 189.462 106.517L189.328 108.62C188.646 108.58 187.965 108.556 187.286 108.556ZM197.335 110.186C196.689 109.966 196.031 109.772 195.372 109.602L195.914 107.563C196.609 107.743 197.315 107.953 198 108.183L197.335 110.186ZM191.361 108.816L191.632 106.734C192.347 106.82 193.072 106.94 193.788 107.08L193.383 109.146C192.711 109.013 192.033 108.909 191.361 108.816Z" fill="white"/>
<path d="M189.821 127.526L186.224 137.911C186.224 137.911 171.692 144.161 171.799 146.33C171.903 148.503 185.676 140.666 185.676 140.666C185.676 140.666 174.239 154.69 176.874 156.645C179.505 158.601 187.143 140.956 187.143 140.956C187.143 140.956 183.389 160.257 186.083 160.254C188.778 160.247 189.995 140.626 189.995 140.626C189.995 140.626 191.261 158.594 193.819 158.381C196.373 158.175 191.823 141.346 191.823 141.346C191.823 141.346 197.804 145.571 199.532 144.125C201.257 142.675 192.442 138.247 192.442 138.247L194.049 128.365L189.817 127.529L189.821 127.526Z" fill="#FFD8BD"/>
<path d="M187.791 122.828L185.324 135.226L197.696 138.931L199.13 127.22L187.791 122.828Z" fill="#0090BC"/>
<path d="M210.517 93.2853L202.992 121.829L198.94 137.212L184.459 131.484C184.459 131.484 187.725 98.8394 201.016 92.519C203.45 91.3628 206.776 91.7627 210.517 93.2919V93.2853Z" fill="#001B42"/>
<path d="M128.034 67.2087C134.703 68.6813 141.148 66.9488 145.13 60.925C149.017 55.061 148.887 46.5616 141.466 43.9162C133.072 40.9276 125.891 44.6892 118.4 48.2309C117.21 48.7806 115.983 49.2037 114.713 49.4803C116.184 49.7002 116.401 49.2204 115.361 48.0376C114.355 45.8653 114.816 43.1232 115.238 40.8843C115.796 37.9257 121.014 30.156 124.952 31.3354C125.751 31.5753 129.629 32.5049 130.006 31.0722C130.388 29.5929 126.537 28.6133 125.731 28.3668C118.433 26.1811 112.038 28.5234 107.532 34.5906C102.795 40.9543 105.831 49.7635 112.908 52.2823C121.285 55.2676 127.436 50.7097 134.981 47.7777C136.154 47.328 137.354 46.9615 138.584 46.6749C137.488 47.2213 137.398 48.1376 138.324 49.427C138.531 51.3228 137.999 53.3052 137.485 55.1077C136.756 57.7031 131.036 64.7199 128.82 64.2334C127.994 64.0502 124.153 63.0306 123.769 64.5033C123.388 65.9426 127.225 67.0221 128.044 67.202L128.034 67.2087Z" fill="#FFD629"/>
<path d="M108.683 27.3065L106.43 29.1652L138.766 68.1088L141.019 66.2501L108.683 27.3065Z" fill="#FFD629"/>
<path d="M142.813 65.867L110.527 26.9018L112.79 25.046L145.073 64.0145L142.813 65.867Z" fill="#FFD629"/>
<path d="M145.975 25.7472C149.258 27.8929 153.072 28.276 156.445 25.8538C159.735 23.4949 161.41 18.9037 157.963 15.9751C154.069 12.66 149.439 13.2197 144.688 13.5962C143.936 13.6495 143.194 13.6262 142.452 13.5162C143.197 13.9327 143.411 13.7228 143.097 12.8732C143.004 11.5038 143.813 10.1245 144.498 9.00499C145.404 7.52901 149.8 4.42046 151.672 5.85646C152.053 6.14632 153.945 7.43906 154.44 6.74271C154.948 6.02638 153.079 4.71699 152.698 4.42046C149.228 1.7617 145.314 1.71505 141.646 4.0573C137.799 6.50949 137.622 11.857 140.908 14.6524C144.795 17.9608 149.034 16.7647 153.687 16.7281C154.41 16.7281 155.128 16.7747 155.847 16.868C155.145 16.938 154.911 17.4111 155.142 18.294C154.868 19.3535 154.176 20.3097 153.527 21.1727C152.604 22.4187 148.095 25.0209 147.002 24.3079C146.597 24.0413 144.745 22.7086 144.234 23.4249C143.736 24.1213 145.574 25.4807 145.975 25.7439V25.7472Z" fill="#FFD629"/>
<path d="M143.768 0.393338L142.177 0.932861L151.559 28.433L153.151 27.8934L143.768 0.393338Z" fill="#FFD629"/>
<path d="M154.192 28.0369L144.839 0.536417L146.437 0L155.783 27.5039L154.192 28.0369Z" fill="#FFD629"/>
<path d="M184.689 20.608C186.371 21.7574 188.343 21.9973 190.122 20.7746C191.853 19.5885 192.773 17.2262 191.018 15.6669C189.032 13.9044 186.625 14.1477 184.158 14.2876C183.767 14.3076 183.382 14.2876 182.998 14.221C183.382 14.4442 183.493 14.3376 183.339 13.8944C183.306 13.1814 183.743 12.4718 184.108 11.902C184.596 11.1457 186.909 9.57978 187.865 10.3461C188.056 10.5027 189.025 11.1924 189.293 10.8359C189.563 10.4694 188.607 9.76969 188.413 9.6131C186.645 8.19376 184.613 8.13045 182.687 9.30324C180.668 10.5327 180.514 13.3047 182.186 14.7907C184.168 16.5499 186.378 15.9768 188.791 16.0068C189.166 16.0135 189.54 16.0434 189.911 16.1034C189.547 16.1301 189.42 16.3733 189.53 16.8331C189.373 17.3795 189.005 17.8693 188.661 18.309C188.169 18.9421 185.799 20.2448 185.241 19.865C185.034 19.7217 184.088 19.0121 183.814 19.3752C183.546 19.7317 184.486 20.458 184.689 20.598V20.608Z" fill="#FFD629"/>
<path d="M183.814 7.40691L182.983 7.66956L187.549 22.0354L188.381 21.7728L183.814 7.40691Z" fill="#FFD629"/>
<path d="M188.925 21.8848L184.375 7.51818L185.211 7.2583L189.757 21.6249L188.925 21.8848Z" fill="#FFD629"/>
</g>
<defs>
<linearGradient id="paint0_linear_1_42869" x1="-30.1241" y1="113.177" x2="162.619" y2="306.563" gradientUnits="userSpaceOnUse">
<stop stop-color="#71C4FF"/>
<stop offset="1" stop-color="#0966A7"/>
</linearGradient>
<clipPath id="clip0_1_42869">
<rect width="457" height="358" fill="white" transform="translate(-45)"/>
</clipPath>
</defs>
</svg>
